<svg id="Layer_1" data-name="Layer 1" xmlns="http://www.w3.org/2000/svg" viewBox="0 0 1000 500"><title>Greyscale PENGUINS</title><path d="M802.38,153.17s-252.92-6-318.54,152.11h0s-125.87-6-301.84,0c0,0,41.76-244.57,173-259.49S581.67,90.53,581.67,90.53,781.5,96.5,802.38,153.17Z" style="fill:#eee"/><path d="M635.36,120.36c72.57,3.42,165,16.55,167,32.81,0,0-122.29-41.76-324.39,29.51-.18.06-.33-.12-.2-.26l.17-.19C512.33,143.88,583.92,117.94,635.36,120.36Z" style="fill:#fff"/><ellipse cx="384.74" cy="112.9" rx="26.76" ry="22.37" style="fill:#fff"/><path d="M205.34,403.28v34.53H180.8V336h40.61a47.32,47.32,0,0,1,20.66,4.3A32.41,32.41,0,0,1,256,352.56a33.42,33.42,0,0,1,4.93,18q0,14.89-10.66,23.8T221,403.28Zm0-18.94h16.08q7.13,0,10.87-3.56T236,370.7q0-7.13-3.84-11.39T221.7,355H205.34Z" style="fill:#eee"/><path d="M337.11,394.61H298.52v24.33H344.1v18.87H274V336h70.25V355H298.52v21.46h38.59Z" style="fill:#eee"/><path d="M439.1,437.81h-24.4l-36.07-63.33v63.33H354.1V336h24.54l36,63.33V336H439.1Z" style="fill:#eee"/><path d="M537.95,425.23q-5.66,6.29-16.57,10.14a71.47,71.47,0,0,1-23.91,3.84q-20,0-31.95-12.23t-12.79-34l-.07-8.81q0-15,5.31-26.25a39.45,39.45,0,0,1,15.2-17.27,43,43,0,0,1,22.89-6q19,0,29.54,8.7t12.27,26H514.25q-1.26-8.53-5.45-12.16t-11.88-3.63a16,16,0,0,0-14.26,7.83q-5,7.83-5.1,22.37v6.15q0,15.24,5.21,22.89t16.39,7.65q9.58,0,14.26-4.26v-15.8H496.35V383.42h41.59Z" style="fill:#eee"/><path d="M632,336v66.62q0,11.32-4.82,19.61a31.25,31.25,0,0,1-13.84,12.62q-9,4.33-21.32,4.33-18.6,0-29.29-9.65t-10.91-26.42V336h24.68v67.6q.42,16.71,15.52,16.71,7.62,0,11.53-4.19t3.92-13.63V336Z" style="fill:#eee"/><path d="M673.49,437.81H649V336h24.47Z" style="fill:#eee"/><path d="M775.55,437.81h-24.4l-36.07-63.33v63.33H690.55V336h24.54l36,63.33V336h24.47Z" style="fill:#eee"/><path d="M843.57,410.76a10.08,10.08,0,0,0-3.81-8.39q-3.81-3-13.39-6.22a128.33,128.33,0,0,1-15.66-6.22q-19.78-9.72-19.78-26.7a24,24,0,0,1,4.93-14.92,31.89,31.89,0,0,1,13.95-10.07,54.28,54.28,0,0,1,20.27-3.6,47.48,47.48,0,0,1,19.68,3.92,31.16,31.16,0,0,1,13.53,11.15,29.13,29.13,0,0,1,4.82,16.53H843.64q0-6.22-3.81-9.65t-10.31-3.42q-6.57,0-10.38,2.9a8.9,8.9,0,0,0-3.81,7.38q0,3.92,4.19,7.1t14.75,6.57a90.43,90.43,0,0,1,17.34,7.3q16.5,9.51,16.5,26.21,0,13.35-10.07,21t-27.61,7.62a54.77,54.77,0,0,1-22.4-4.44q-10-4.44-15.1-12.16a31.68,31.68,0,0,1-5.07-17.79h24.61q0,8.18,4.23,12.06t13.74,3.88q6.08,0,9.61-2.62A8.65,8.65,0,0,0,843.57,410.76Z" style="fill:#eee"/></svg>